<svg width="18" height="14" viewBox="0 0 18 14" fill="none" xmlns="http://www.w3.org/2000/svg">
<path d="M0 7C0 7.19891 0.0790157 7.38968 0.219669 7.53033C0.360321 7.67098 0.551086 7.75 0.75 7.75H12.45C12.6489 7.75 12.8397 7.67098 12.9803 7.53033C13.121 7.38968 13.2 7.19891 13.2 7C13.2 6.80109 13.121 6.61032 12.9803 6.46967C12.8397 6.32902 12.6489 6.25 12.45 6.25H0.75C0.551086 6.25 0.360321 6.32902 0.219669 6.46967C0.0790157 6.61032 0 6.80109 0 7ZM17.25 1.75H0.75C0.551086 1.75 0.360321 1.67098 0.219669 1.53033C0.0790157 1.38968 0 1.19891 0 1C0 0.801088 0.0790157 0.610322 0.219669 0.46967C0.360321 0.329018 0.551086 0.25 0.75 0.25H17.25C17.4489 0.25 17.6397 0.329018 17.7803 0.46967C17.921 0.610322 18 0.801088 18 1C18 1.19891 17.921 1.38968 17.7803 1.53033C17.6397 1.67098 17.4489 1.75 17.25 1.75ZM0.75 12.25H17.25C17.4489 12.25 17.6397 12.329 17.7803 12.4697C17.921 12.6103 18 12.8011 18 13C18 13.1989 17.921 13.3897 17.7803 13.5303C17.6397 13.671 17.4489 13.75 17.25 13.75H0.75C0.551086 13.75 0.360321 13.671 0.219669 13.5303C0.0790157 13.3897 0 13.1989 0 13C0 12.8011 0.0790157 12.6103 0.219669 12.4697C0.360321 12.329 0.551086 12.25 0.75 12.25Z" fill="black"/>
</svg>
