<svg width="12" height="12" viewBox="0 0 12 12" fill="none" xmlns="http://www.w3.org/2000/svg">
<path d="M11.6247 1V9.125C11.6247 9.29076 11.5589 9.44973 11.4417 9.56694C11.3245 9.68415 11.1655 9.75 10.9997 9.75C10.834 9.75 10.675 9.68415 10.5578 9.56694C10.4406 9.44973 10.3747 9.29076 10.3747 9.125V2.50859L1.44192 11.4422C1.32465 11.5595 1.16559 11.6253 0.999737 11.6253C0.833885 11.6253 0.674825 11.5595 0.55755 11.4422C0.440274 11.3249 0.37439 11.1659 0.37439 11C0.37439 10.8341 0.440274 10.6751 0.55755 10.5578L9.49114 1.625H2.87474C2.70898 1.625 2.55001 1.55915 2.4328 1.44194C2.31559 1.32473 2.24974 1.16576 2.24974 1C2.24974 0.83424 2.31559 0.675269 2.4328 0.558058C2.55001 0.440848 2.70898 0.375 2.87474 0.375H10.9997C11.1655 0.375 11.3245 0.440848 11.4417 0.558058C11.5589 0.675269 11.6247 0.83424 11.6247 1Z" fill="#0C111D"/>
</svg>
